<svg width="108.8" height="32" viewBox="0 0 412 120" fill="none" xmlns="http://www.w3.org/2000/svg">
  <rect x="0" y="0" width="412" height="120" fill="#fff" />
  <g transform="translate(41.2, 36) scale(0.8)">
    <path fill-rule="evenodd" clip-rule="evenodd"
      d="M14.3417 59.1139H68.2562C71.4608 59.1139 73.8992 55.3049 72.0541 52.5382L45.1307 5.69531C43.164 2.30581 39.4341 0.000976562 35.1617 0.000976562C30.6857 0.000976562 26.7522 2.57697 24.8533 6.37321L4.37264 41.8952C0.201984 49.3398 5.88818 59.1139 14.3417 59.1139Z"
      fill="#0043FF" />
    <path fill-rule="evenodd" clip-rule="evenodd"
      d="M56.7954 17.2888C53.608 11.7978 55.5068 4.74762 61 1.56149C66.4932 -1.62464 73.5461 0.273492 76.7335 5.76448L97.5535 41.8288C100.741 47.3198 98.8419 54.3699 93.3487 57.556C87.8555 60.7422 80.8026 58.8441 77.6152 53.3531L56.7954 17.2888Z"
      fill="#0043FF" />
    <path
      d="M376.518 15.0121C379.661 12.0797 385.179 10.6833 393.211 10.6833H412V0.000976562H389.789C384.48 0.000976562 380.01 0.559549 376.518 1.67666C373.095 2.79377 370.092 4.53924 367.507 6.98292C364.783 9.63605 362.618 12.9175 361.081 16.8274C359.545 20.8071 358.776 25.136 358.776 29.6742C358.776 34.003 359.545 38.1922 361.081 42.0323C362.618 45.8723 364.783 49.2236 367.507 51.8768C370.022 54.3205 373.025 56.066 376.378 57.1831C379.8 58.3002 384.34 58.8587 389.789 58.8587H412V48.316H393.211C388.95 48.316 386.017 48.1764 384.34 47.8273C382.594 47.4782 380.988 46.9196 379.661 46.0818C377.006 44.4061 374.981 42.2417 373.654 39.5187C372.397 36.8656 371.768 33.5143 371.768 29.6044C371.768 22.9018 373.374 17.9446 376.518 15.0121Z"
      fill="black" />
    <path
      d="M213.005 58.9994H265.39V48.6661H225.787V33.9342H260.361V24.1595H225.787V10.4749H265.39V0.0717773H213.005V58.9994Z"
      fill="black" />
    <path
      d="M278.452 0.0717773L302.968 29.5356L278.452 58.9994H294.307L313.655 35.6797V23.4613L294.307 0.0717773H278.452Z"
      fill="black" />
    <path
      d="M337.962 0.0717773L318.614 23.4613V35.6797L337.962 58.9994H353.817L329.231 29.5356L353.817 0.0717773H337.962Z"
      fill="black" />
    <path
      d="M161.667 29.1167L138.129 0.0717773H125.976V58.9994H138.758V19.6911L159.153 44.1278H164.112L184.508 19.4816V58.9994H197.29V0.0717773H185.276L161.667 29.1167Z"
      fill="black" />
  </g>
</svg>