<svg width="355" height="64" viewBox="0 0 355 64" fill="none" xmlns="http://www.w3.org/2000/svg">
<g clip-path="url(#clip0_34660_229663)">
<g clip-path="url(#clip1_34660_229663)">
<path fill-rule="evenodd" clip-rule="evenodd" d="M59.2033 0C63.2082 4.22074e-05 67.6353 2.28934 69.5324 7.07617L84.2873 43.8115C88.0814 53.1773 81.1252 63.9999 70.2697 64C64.3679 63.9999 58.5712 60.9821 55.5149 53.5938L42.6662 22.2803L29.8186 53.5938C26.7622 60.9821 20.9655 63.9999 15.0637 64C4.20816 64 -2.74799 53.1774 1.0461 43.8115L15.801 7.07617C17.6981 2.28931 22.1252 0 26.1301 0C30.451 0.000171931 34.2452 2.60215 36.6691 7.70117L42.6662 20.3213L48.6643 7.70117C51.0883 2.60215 54.8823 0.00014057 59.2033 0Z" fill="#3378FF"/>
</g>
<path d="M116.491 4.265C117.535 4.26509 118.522 4.74288 119.169 5.56187L138.773 30.3714L158.375 5.56187C159.023 4.74288 160.009 4.26509 161.053 4.265H168.961C169.904 4.2651 170.668 5.02946 170.668 5.97203V58.0287C170.668 58.9712 169.904 59.7356 168.961 59.7357H161.281C160.338 59.7357 159.573 58.9713 159.573 58.0287V21.9398L142.677 43.3246C142.353 43.7342 141.86 43.9739 141.338 43.974H136.206C135.684 43.9739 135.191 43.7342 134.867 43.3246L117.757 21.6703V58.0287C117.757 58.9712 116.993 59.7355 116.051 59.7357H108.37C107.428 59.7357 106.663 58.9713 106.663 58.0287V5.97203C106.663 5.0294 107.428 4.265 108.37 4.265H116.491ZM232.965 4.265C233.908 4.265 234.672 5.0294 234.672 5.97203V12.7992C234.672 13.7417 233.908 14.5052 232.965 14.5052H194.563V26.8802H228.698C229.641 26.8802 230.405 27.6439 230.406 28.5863V35.4134C230.406 36.3561 229.641 37.1205 228.698 37.1205H194.563V49.4945H232.965C233.908 49.4945 234.672 50.2589 234.672 51.2015V58.0287C234.672 58.9713 233.908 59.7357 232.965 59.7357H185.175C184.233 59.7355 183.469 58.9712 183.469 58.0287V5.97203C183.469 5.02953 184.233 4.26521 185.175 4.265H232.965ZM253.684 4.265C254.696 4.265 255.655 4.72139 256.298 5.50914L270.942 23.4466L285.584 5.50914C286.227 4.72144 287.187 4.26508 288.198 4.265H296.981C298.411 4.26518 299.196 5.94253 298.287 7.05602L277.924 32.0004L298.287 56.9437C299.196 58.0572 298.411 59.7355 296.981 59.7357H288.198C287.187 59.7356 286.227 59.2793 285.584 58.4916L270.942 40.5541L256.298 58.4916C255.655 59.2792 254.696 59.7357 253.684 59.7357H244.903C243.472 59.7357 242.686 58.0573 243.595 56.9437L263.958 32.0004L243.595 7.05602C242.686 5.94247 243.472 4.265 244.903 4.265H253.684ZM352.441 4.265C353.383 4.26517 354.147 5.0295 354.147 5.97203V13.2259C354.147 14.1683 353.383 14.9318 352.441 14.932H330.107C321.021 14.932 313.656 22.2671 313.656 31.3148V32.6859C313.656 41.7335 321.021 49.0677 330.107 49.0677H352.441C353.383 49.0679 354.147 49.8323 354.147 50.7748V58.0287C354.147 58.9712 353.383 59.7355 352.441 59.7357H330.107C315.105 59.7357 302.944 47.6249 302.944 32.6859V31.3148C302.944 16.3757 315.105 4.265 330.107 4.265H352.441Z" fill="#111827"/>
</g>
<defs>
<clipPath id="clip0_34660_229663">
<rect width="354.147" height="64" fill="white"/>
</clipPath>
<clipPath id="clip1_34660_229663">
<rect width="85.3333" height="64" fill="white"/>
</clipPath>
</defs>
</svg>
